<?xml version="1.0" encoding="UTF-8" standalone="no"?>
<!-- Created with Inkscape (http://www.inkscape.org/) -->

<svg width="512" height="512" viewBox="0 0 512 512" version="1.1" id="svg1" xml:space="preserve"
    inkscape:version="1.4 (86a8ad7, 2024-10-11)" sodipodi:docname="butler_logo.svg" xmlns:inkscape="http://www.inkscape.org/namespaces/inkscape"
    xmlns:sodipodi="http://sodipodi.sourceforge.net/DTD/sodipodi-0.dtd" xmlns="http://www.w3.org/2000/svg"><sodipodi:namedview
     id="namedview1"
     pagecolor="#ffffff"
     bordercolor="#000000"
     borderopacity="0.25"
     inkscape:showpageshadow="2"
     inkscape:pageopacity="0.0"
     inkscape:pagecheckerboard="0"
     inkscape:deskcolor="#d1d1d1"
     inkscape:document-units="px"
     inkscape:zoom="3.4882813"
     inkscape:cx="237.79619"
     inkscape:cy="240.23292"
     inkscape:window-width="3840"
     inkscape:window-height="2054"
     inkscape:window-x="2549"
     inkscape:window-y="-11"
     inkscape:window-maximized="1"
     inkscape:current-layer="svg1" /><defs
     id="defs1" /><g
     inkscape:groupmode="layer"
     id="layer2"
     inkscape:label="Layer 2"><path
       style="display:inline;fill:#eaecf0;fill-opacity:1;stroke:#001d33;stroke-width:12;stroke-linecap:round;stroke-dasharray:none;stroke-opacity:1"
       d="M 122.69653,278.93393 C 109.50952,85.620008 399.43263,82.179919 391.02352,280.3673"
       id="path5"
       sodipodi:nodetypes="cc" /><path
       style="fill:#eceef0;stroke:#001d33;stroke-width:24;stroke-linecap:round;stroke-dasharray:none;stroke-opacity:1;paint-order:stroke fill markers"
       d="m 178.03786,304.84375 a 12,12 0 0 0 -12.45508,11.52734 c -0.72446,18.72443 -9.76583,28.17281 -17.08008,34.13672 a 12,12 0 0 0 -1.71679,16.88477 12,12 0 0 0 16.88281,1.71679 c 10.2539,-8.36086 24.86412,-25.12809 25.89648,-51.81054 a 12,12 0 0 0 -11.52734,-12.45508 z"
       id="path8" /><path
       style="fill:#eceef0;stroke:#001d33;stroke-width:24;stroke-linecap:round;stroke-dasharray:none;stroke-opacity:1;paint-order:stroke fill markers"
       d="m 333.37736,304.84372 a 12,12 0 0 1 12.45508,11.52734 c 0.72446,18.72443 9.76583,28.17281 17.08008,34.13672 a 12,12 0 0 1 1.71679,16.88477 12,12 0 0 1 -16.88281,1.71679 c -10.2539,-8.36086 -24.86412,-25.12809 -25.89648,-51.81054 a 12,12 0 0 1 11.52734,-12.45508 z"
       id="path8-4" /><path
       style="display:inline;fill:#000000;stroke:#001d33;stroke-width:31.7604;stroke-linecap:round;stroke-dasharray:none;stroke-opacity:1"
       d="m 214.96703,200.79809 -0.0298,25.42669"
       id="path2"
       sodipodi:nodetypes="cc" /><path
       style="display:inline;fill:#000000;stroke:#001d33;stroke-width:31.7604;stroke-linecap:round;stroke-dasharray:none;stroke-opacity:1"
       d="m 295.17988,200.67527 -0.0298,25.42669"
       id="path2-4"
       sodipodi:nodetypes="cc" /><ellipse
       style="display:inline;fill:#f7f7f7;fill-opacity:1;stroke:#001d33;stroke-width:0;stroke-linecap:round;stroke-dasharray:none;stroke-opacity:1"
       id="path3"
       cx="210.44473"
       cy="201.85028"
       rx="7.7282891"
       ry="7.7705207" /><ellipse
       style="display:inline;fill:#f7f7f7;fill-opacity:1;stroke:#001d33;stroke-width:0;stroke-linecap:round;stroke-dasharray:none;stroke-opacity:1"
       id="path3-7"
       cx="290.82422"
       cy="201.88768"
       rx="7.7282891"
       ry="7.7705207" /><path
       style="display:inline;fill:none;fill-opacity:1;stroke:#001d33;stroke-width:12;stroke-linecap:round;stroke-dasharray:none;stroke-opacity:1"
       d="m 235.57446,251.05488 c 4.41956,15.21763 31.79694,19.29076 39.88354,0.0717"
       id="path4"
       sodipodi:nodetypes="cc" /><path
       style="fill:none;fill-opacity:1;stroke:#001d33;stroke-width:42;stroke-linecap:round;stroke-dasharray:none;stroke-opacity:1"
       d="m 99.18925,297.28108 312.18813,0.28667"
       id="path6" /><path
       style="fill:none;fill-opacity:1;stroke:#eceef0;stroke-width:20;stroke-linecap:round;stroke-dasharray:none;stroke-opacity:1"
       d="m 99.18925,297.28108 312.18813,0.28667"
       id="path6-2" /><path
       style="fill:none;fill-opacity:1;stroke:#001d33;stroke-width:16;stroke-linecap:butt;stroke-dasharray:none;stroke-opacity:1"
       d="m 236.28565,134.09491 c -11.86056,-45.509742 49.07834,-45.968768 37.16298,-0.18614"
       id="path7"
       sodipodi:nodetypes="cc" /></g></svg>
